<svg width="1280" height="560" viewBox="0 0 1280 560" fill="none" xmlns="http://www.w3.org/2000/svg">
  <rect width="1280" height="560" rx="20" fill="#0D1117"/>
  
  <!-- Subtle Grid lines background -->
  <path d="M0 60H1280M0 120H1280M0 180H1280M0 240H1280M0 300H1280M0 360H1280M0 420H1280M0 480H1280" stroke="#161B22" stroke-width="1" stroke-dasharray="4 4"/>

  <!-- Header section -->
  <path d="M72 96H1208" stroke="#30363D" stroke-width="1.5"/>
  <text x="72" y="70" fill="#F0F6FC" font-family="Inter, Segoe UI, sans-serif" font-size="36" font-weight="800" letter-spacing="-1.4">Featured Repositories</text>
  <text x="910" y="70" fill="#00F0FF" font-family="Consolas, Monaco, monospace" font-size="14" font-weight="700">Narendarcodes // System Architecture</text>

  <!-- Card 1: Autonomous WhatsApp Agent -->
  <g transform="translate(72 130)">
    <rect width="540" height="150" rx="16" fill="#161B22" stroke="#FF7B72" stroke-width="1.5" stroke-opacity="0.60"/>
    <rect x="24" y="24" width="138" height="22" rx="11" fill="#21262D"/>
    <text x="34" y="39" fill="#FF7B72" font-family="Consolas, Monaco, monospace" font-size="11" font-weight="700">PYTHON • FASTAPI</text>
    <text x="24" y="80" fill="#F0F6FC" font-family="Inter, Segoe UI, sans-serif" font-size="24" font-weight="800">Autonomous WhatsApp Agent</text>
    <text x="24" y="114" fill="#8B949E" font-family="Consolas, Monaco, monospace" font-size="13">Autonomous bot for calendar automation &amp; tool execution</text>
  </g>

  <!-- Card 2: Flowly -->
  <g transform="translate(668 130)">
    <rect width="540" height="150" rx="16" fill="#161B22" stroke="#00F0FF" stroke-width="1.5" stroke-opacity="0.60"/>
    <rect x="24" y="24" width="158" height="22" rx="11" fill="#21262D"/>
    <text x="34" y="39" fill="#00F0FF" font-family="Consolas, Monaco, monospace" font-size="11" font-weight="700">TYPESCRIPT • CHROME MV3</text>
    <text x="24" y="80" fill="#F0F6FC" font-family="Inter, Segoe UI, sans-serif" font-size="24" font-weight="800">Flowly (Productivity AI)</text>
    <text x="24" y="114" fill="#8B949E" font-family="Consolas, Monaco, monospace" font-size="13">Flow-state scoring, distraction checks &amp; AI prompts</text>
  </g>

  <!-- Card 3: NaruClip Engine -->
  <g transform="translate(72 330)">
    <rect width="540" height="150" rx="16" fill="#161B22" stroke="#00F0FF" stroke-width="1.5" stroke-opacity="0.60"/>
    <rect x="24" y="24" width="170" height="22" rx="11" fill="#21262D"/>
    <text x="34" y="39" fill="#00F0FF" font-family="Consolas, Monaco, monospace" font-size="11" font-weight="700">PYTHON • AFTER EFFECTS API</text>
    <text x="24" y="80" fill="#F0F6FC" font-family="Inter, Segoe UI, sans-serif" font-size="24" font-weight="800">NaruClip Engine</text>
    <text x="24" y="114" fill="#8B949E" font-family="Consolas, Monaco, monospace" font-size="13">Automated video processing pipeline &amp; render panel</text>
  </g>

  <!-- Card 4: Power System Fault Detection -->
  <g transform="translate(668 330)">
    <rect width="540" height="150" rx="16" fill="#161B22" stroke="#FFD700" stroke-width="1.5" stroke-opacity="0.60"/>
    <rect x="24" y="24" width="168" height="22" rx="11" fill="#21262D"/>
    <text x="34" y="39" fill="#FFD700" font-family="Consolas, Monaco, monospace" font-size="11" font-weight="700">JUPYTER • MACHINE LEARNING</text>
    <text x="24" y="80" fill="#F0F6FC" font-family="Inter, Segoe UI, sans-serif" font-size="22" font-weight="800">Power System Fault Detection</text>
    <text x="24" y="114" fill="#8B949E" font-family="Consolas, Monaco, monospace" font-size="13">ML algorithms &amp; fault classification for grid reliability</text>
  </g>
</svg>
